<svg width="20" height="21" viewBox="0 0 20 21" fill="none" xmlns="http://www.w3.org/2000/svg">
<path d="M15.1309 9.27657H13.8809C13.8804 8.77731 13.6827 8.29864 13.3311 7.94561C12.9796 7.59259 12.503 7.39404 12.0059 7.39354V6.13818C12.8344 6.13918 13.6286 6.47015 14.2145 7.0585C14.8003 7.64684 15.1299 8.44452 15.1309 9.27657V9.27657Z" fill="#FFFDF5"/>
<path d="M17.6309 9.27653H16.3809C16.3795 8.11165 15.9182 6.99486 15.098 6.17116C14.2778 5.34746 13.1658 4.88412 12.0059 4.88279V3.62744C13.4972 3.6291 14.927 4.22481 15.9815 5.28386C17.036 6.34291 17.6292 7.77881 17.6309 9.27653V9.27653Z" fill="#FFFDF5"/>
<path d="M16.3805 19.3196H16.2743C3.99302 18.6103 2.24927 8.20344 2.00552 5.0274C1.96742 4.52949 2.12782 4.03678 2.45143 3.65763C2.77504 3.27849 3.23536 3.04397 3.73114 3.00565C3.78072 3.00188 3.83052 3 3.88052 3H7.17427C7.42461 2.99976 7.66927 3.07501 7.87654 3.21602C8.0838 3.35703 8.24414 3.5573 8.33677 3.79087L9.28677 6.13838C9.37823 6.36657 9.40093 6.61672 9.35204 6.85776C9.30315 7.09879 9.18483 7.32009 9.01177 7.49417L7.68052 8.84367C7.88762 10.0308 8.45326 11.1253 9.30072 11.9786C10.1482 12.832 11.2365 13.4029 12.418 13.614L13.7743 12.2645C13.9502 12.0926 14.1726 11.9766 14.4138 11.9308C14.655 11.885 14.9043 11.9116 15.1305 12.0072L17.4868 12.955C17.7158 13.0509 17.9113 13.2132 18.0482 13.4211C18.1851 13.629 18.2573 13.8732 18.2555 14.1224V17.4366C18.2555 17.936 18.058 18.4149 17.7063 18.7681C17.3547 19.1212 16.8778 19.3196 16.3805 19.3196ZM3.88052 4.25535C3.79844 4.25511 3.71712 4.2711 3.64119 4.30241C3.56527 4.33373 3.49623 4.37975 3.43802 4.43786C3.37981 4.49597 3.33357 4.56503 3.30193 4.64109C3.2703 4.71715 3.25389 4.79872 3.25364 4.88115C3.25364 4.89872 3.25427 4.91609 3.25552 4.93324C3.54302 8.64909 5.38677 17.4366 16.343 18.0642C16.5084 18.0742 16.671 18.0178 16.795 17.9074C16.919 17.7969 16.9943 17.6416 17.0043 17.4755L17.0055 17.4366V14.1224L14.6493 13.1746L12.8555 14.9635L12.5555 14.9259C7.11802 14.2417 6.38052 8.7809 6.38052 8.72441L6.34302 8.42313L8.11802 6.6217L7.18052 4.25535H3.88052Z" fill="#FFFDF5"/>
</svg>
