<svg width="20" height="21" viewBox="0 0 20 21" fill="none" xmlns="http://www.w3.org/2000/svg">
<path d="M9.75 19.5C8.01942 19.5 6.32769 18.9868 4.88876 18.0254C3.44983 17.0639 2.32832 15.6973 1.66606 14.0985C1.00379 12.4996 0.830512 10.7403 1.16813 9.04296C1.50575 7.34563 2.33911 5.78653 3.56282 4.56282C4.78653 3.33911 6.34563 2.50575 8.04296 2.16813C9.7403 1.83051 11.4996 2.00379 13.0985 2.66606C14.6973 3.32832 16.0639 4.44983 17.0254 5.88876C17.9868 7.32769 18.5 9.01942 18.5 10.75C18.5 13.0706 17.5781 15.2962 15.9372 16.9372C14.2962 18.5781 12.0706 19.5 9.75 19.5ZM9.75 3.25C8.26664 3.25 6.8166 3.68987 5.58323 4.51398C4.34986 5.33809 3.38856 6.50943 2.82091 7.87988C2.25325 9.25032 2.10473 10.7583 2.39411 12.2132C2.6835 13.668 3.39781 15.0044 4.4467 16.0533C5.4956 17.1022 6.83197 17.8165 8.28683 18.1059C9.74168 18.3953 11.2497 18.2468 12.6201 17.6791C13.9906 17.1114 15.1619 16.1501 15.986 14.9168C16.8101 13.6834 17.25 12.2334 17.25 10.75C17.25 8.76088 16.4598 6.85323 15.0533 5.4467C13.6468 4.04018 11.7391 3.25 9.75 3.25V3.25Z" fill="#FFFDF5"/>
<path d="M12.6188 14.5L9.125 11.0062V5.125H10.375V10.4875L13.5 13.6188L12.6188 14.5Z" fill="#FFFDF5"/>
</svg>
