<svg width="23" height="21" viewBox="0 0 23 21" fill="none" xmlns="http://www.w3.org/2000/svg">
<path d="M11.5 20.5209C11.3465 20.5204 11.1976 20.4691 11.0763 20.3751C7.21523 17.3751 4.5555 14.7917 2.69439 12.2431C0.319393 8.98616 -0.222274 5.97922 1.08328 3.30561C2.01384 1.39589 4.68745 -0.166614 7.81245 0.743108C9.30241 1.17348 10.6024 2.09643 11.5 3.36116C12.3975 2.09643 13.6975 1.17348 15.1874 0.743108C18.3055 -0.152725 20.9861 1.39589 21.9166 3.30561C23.2222 5.97922 22.6805 8.98616 20.3055 12.2431C18.4444 14.7917 15.7847 17.3751 11.9236 20.3751C11.8023 20.4691 11.6534 20.5204 11.5 20.5209ZM6.03467 1.87505C5.2911 1.84611 4.55368 2.02022 3.90158 2.3787C3.24947 2.73717 2.70731 3.26647 2.33328 3.90977C1.25689 6.11811 1.743 8.57644 3.81939 11.4167C6.02604 14.263 8.60996 16.7955 11.5 18.9445C14.3895 16.7976 16.9734 14.2674 19.1805 11.4237C21.2638 8.57644 21.743 6.11811 20.6666 3.91672C19.9722 2.52783 17.8888 1.42366 15.5694 2.07644C14.8257 2.29623 14.1362 2.6693 13.5454 3.17163C12.9545 3.67396 12.4754 4.29443 12.1388 4.99311C12.0865 5.12048 11.9975 5.22942 11.8831 5.30608C11.7688 5.38275 11.6342 5.42369 11.4965 5.42369C11.3588 5.42369 11.2242 5.38275 11.1098 5.30608C10.9954 5.22942 10.9064 5.12048 10.8541 4.99311C10.5201 4.29268 10.0418 3.67077 9.45057 3.16812C8.85936 2.66548 8.1686 2.29345 7.42356 2.07644C6.97215 1.94533 6.50473 1.87755 6.03467 1.87505Z" fill="#FFFDF5"/>
</svg>
